<svg version="1.1" id="Calque_1" xmlns="http://www.w3.org/2000/svg" xmlns:xlink="http://www.w3.org/1999/xlink" x="0px" y="0px" width="512px" height="512px" viewBox="0 0 512 512" enable-background="new 0 0 512 512" xml:space="preserve">
<g>
<path fill="#281307" d="M471.82,214.11L368.2,182.45c7.04-14.73,10.81-30.97,10.81-47.44c0-29.35-11.43-56.95-32.18-77.7
		s-48.35-32.18-77.7-32.18c-60.58,0-109.87,49.29-109.87,109.88c0,24.92,8.57,49.32,24.12,68.69c2.25,2.82,4.67,5.54,7.19,8.12
		l-6.02,1.84L43.1,170.44c-1.52-0.47-3.16-0.18-4.43,0.76c-1.28,0.94-2.03,2.43-2.03,4.02v262.99c0,2.19,1.44,4.14,3.54,4.78
		l142.9,43.66c0.22,0.07,0.44,0.12,0.67,0.15c0,0,0.01,0,0.01,0.01c0.26,0.04,0.52,0.06,0.79,0.06c0.16,0,0.32-0.02,0.48-0.04
		c0.09-0.01,0.18-0.01,0.26-0.02c0.14-0.02,0.26-0.06,0.39-0.09c0.11-0.02,0.22-0.04,0.33-0.07l0.09-0.03c0,0,0,0,0.01,0
		l141.34-43.18l141.45,43.21c0.48,0.15,0.97,0.22,1.46,0.22c1.06,0,2.1-0.34,2.97-0.98c1.28-0.95,2.03-2.44,2.03-4.02V218.89
		C475.36,216.69,473.92,214.75,471.82,214.11z M179.55,475.12L46.64,434.51V181.97l132.91,40.61V475.12z M322.45,434.51l-132.9,40.6
		V222.59l9.01-2.75l58.76,58.76c3.16,3.15,7.35,4.89,11.81,4.89s8.66-1.74,11.82-4.89l41.5-41.51V434.51z M273.88,271.52
		c-1.27,1.27-2.96,1.97-4.75,1.97s-3.48-0.7-4.74-1.96l-65.89-65.9c-2.57-2.57-5.03-5.32-7.32-8.18
		c-14.34-17.87-21.92-39.46-21.92-62.44c0-55.08,44.8-99.88,99.87-99.88c26.68,0,51.76,10.39,70.63,29.25
		c18.86,18.87,29.25,43.95,29.25,70.63c0,17.2-4.25,33.62-12.4,48.28c-0.02,0.05-0.05,0.08-0.07,0.13
		c-2.72,4.88-5.88,9.58-9.47,14.04c-2.27,2.84-4.73,5.59-7.31,8.17L273.88,271.52z M465.36,475.11l-132.91-40.6V227.09l14.38-14.38
		c2.85-2.85,5.56-5.88,8.05-9c3.13-3.9,5.96-8.01,8.51-12.28l101.97,31.16V475.11z" id="id_101"></path>
<path fill="#f03124" d="M339.76,64.38c-18.87-18.86-43.95-29.25-70.63-29.25c-55.07,0-99.87,44.8-99.87,99.88
		c0,22.98,7.58,44.57,21.92,62.44c2.29,2.86,4.75,5.61,7.32,8.18l65.89,65.9c1.26,1.26,2.95,1.96,4.74,1.96s3.48-0.7,4.75-1.97
		l65.88-65.89c2.58-2.58,5.04-5.33,7.31-8.17c3.59-4.46,6.75-9.16,9.47-14.04c0.02-0.05,0.05-0.08,0.07-0.13
		c8.15-14.66,12.4-31.08,12.4-48.28C369.01,108.33,358.62,83.25,339.76,64.38z M269.13,190.99c-30.87,0-55.98-25.11-55.98-55.98
		s25.11-55.99,55.98-55.99s55.99,25.12,55.99,55.99S300,190.99,269.13,190.99z" id="id_102"></path>
<path fill="#61eb2a" d="M465.36,222.59v252.52l-132.91-40.6V227.09l14.38-14.38c2.85-2.85,5.56-5.88,8.05-9
		c3.13-3.9,5.96-8.01,8.51-12.28L465.36,222.59z" id="id_103"></path>
<path fill="#FEF3F0" d="M322.45,237.09v197.42l-132.9,40.6V222.59l9.01-2.75l58.76,58.76c3.16,3.15,7.35,4.89,11.81,4.89
		s8.66-1.74,11.82-4.89L322.45,237.09z" id="id_104"></path>
<polygon fill="#5ef024" points="179.55,222.58 179.55,475.12 46.64,434.51 46.64,181.97 	" id="id_105"></polygon>
<path fill="#281307" d="M269.13,79.02c-30.87,0-55.98,25.12-55.98,55.99s25.11,55.98,55.98,55.98s55.99-25.11,55.99-55.98
		S300,79.02,269.13,79.02z M269.13,180.99c-25.35,0-45.98-20.63-45.98-45.98c0-25.36,20.63-45.99,45.98-45.99
		c25.36,0,45.99,20.63,45.99,45.99C315.12,160.36,294.49,180.99,269.13,180.99z" id="id_106"></path>
</g>
</svg>