<svg version="1.1" id="Calque_1" xmlns="http://www.w3.org/2000/svg" xmlns:xlink="http://www.w3.org/1999/xlink" x="0px" y="0px" width="512px" height="512px" viewBox="0 0 512 512" enable-background="new 0 0 512 512" xml:space="preserve">
<path fill="#000000" d="M446.07,111.34c-11.75-11.06-27.12-17.15-43.28-17.15H109.21c-16.15,0-31.53,6.09-43.28,17.14
	c-12.66,11.9-19.92,28.68-19.92,46.06v197.22c0,34.85,28.35,63.199,63.2,63.199h293.58c34.85,0,63.2-28.35,63.2-63.199V157.39
	C465.99,140.01,458.73,123.23,446.07,111.34z M78.24,114.13c0.16-0.11,0.32-0.23,0.48-0.35c0.64-0.45,1.29-0.88,1.95-1.3
	c0.16-0.1,0.33-0.2,0.49-0.3c0.5-0.31,1-0.62,1.51-0.91c0.25-0.15,0.5-0.28,0.76-0.42c0.43-0.24,0.86-0.48,1.3-0.71
	c0.28-0.14,0.56-0.28,0.83-0.42c0.43-0.21,0.86-0.41,1.29-0.61c0.28-0.14,0.57-0.27,0.85-0.39c0.45-0.2,0.89-0.39,1.34-0.57
	c0.27-0.11,0.55-0.23,0.83-0.34c0.5-0.19,1-0.37,1.51-0.55c0.23-0.08,0.45-0.17,0.68-0.25c0.73-0.25,1.47-0.48,2.21-0.7
	c0.14-0.04,0.28-0.07,0.42-0.11c0.61-0.17,1.23-0.34,1.85-0.49c0.26-0.07,0.54-0.12,0.81-0.18c0.49-0.12,0.98-0.23,1.48-0.32
	c0.3-0.06,0.61-0.12,0.91-0.17c0.47-0.09,0.95-0.17,1.43-0.24c0.31-0.05,0.62-0.09,0.93-0.13c0.48-0.07,0.97-0.13,1.46-0.18
	c0.3-0.03,0.6-0.06,0.9-0.09c0.53-0.05,1.06-0.08,1.6-0.11c0.26-0.02,0.51-0.04,0.77-0.05c0.79-0.03,1.59-0.05,2.38-0.05h293.58
	c0.79,0,1.59,0.02,2.38,0.05c0.26,0.01,0.51,0.03,0.771,0.05c0.54,0.03,1.069,0.06,1.6,0.11c0.3,0.03,0.6,0.06,0.9,0.09
	c0.489,0.05,0.979,0.11,1.46,0.18c0.31,0.04,0.619,0.08,0.93,0.13c0.479,0.07,0.96,0.15,1.439,0.24c0.301,0.05,0.601,0.11,0.9,0.16
	c0.5,0.1,1,0.21,1.5,0.33c0.26,0.06,0.53,0.11,0.79,0.18c0.64,0.15,1.271,0.32,1.89,0.5c0.131,0.03,0.25,0.06,0.37,0.1
	c0.75,0.22,1.49,0.45,2.221,0.7c0.22,0.08,0.439,0.16,0.649,0.24c0.521,0.18,1.04,0.37,1.55,0.57c0.271,0.1,0.54,0.22,0.811,0.33
	c0.45,0.18,0.91,0.37,1.359,0.57c0.28,0.13,0.551,0.25,0.83,0.38c0.44,0.2,0.88,0.41,1.311,0.63c0.27,0.14,0.54,0.27,0.81,0.41
	c0.45,0.23,0.891,0.47,1.34,0.72c0.24,0.14,0.48,0.27,0.721,0.4c0.529,0.31,1.04,0.62,1.56,0.94c0.15,0.1,0.3,0.18,0.45,0.28
	c0.66,0.42,1.31,0.85,1.96,1.31c0.15,0.11,0.3,0.22,0.45,0.33c0.41,0.29,0.81,0.59,1.21,0.89L256,269.02L77.05,115.01
	C77.45,114.71,77.84,114.42,78.24,114.13z M455.99,354.611c0,29.34-23.87,53.199-53.2,53.199H109.21c-14.67,0-27.97-5.97-37.6-15.6
	c-9.63-9.63-15.6-22.93-15.6-37.6V157.39c0-13.34,4.82-25.8,13.64-35.56l183.09,157.58c0.94,0.8,2.1,1.21,3.26,1.21
	s2.32-0.41,3.26-1.21l183.09-157.58c8.82,9.76,13.641,22.22,13.641,35.56V354.611z" id="id_101"></path>
<path fill="#fffea6" d="M434.95,115.01L256,269.02L77.05,115.01c0.4-0.3,0.79-0.59,1.19-0.88c0.16-0.11,0.32-0.23,0.48-0.35
	c0.64-0.45,1.29-0.88,1.95-1.3c0.16-0.1,0.33-0.2,0.49-0.3c0.5-0.31,1-0.62,1.51-0.91c0.25-0.15,0.5-0.28,0.76-0.42
	c0.43-0.24,0.86-0.48,1.3-0.71c0.28-0.14,0.56-0.28,0.83-0.42c0.43-0.21,0.86-0.41,1.29-0.61c0.28-0.14,0.57-0.27,0.85-0.39
	c0.45-0.2,0.89-0.39,1.34-0.57c0.27-0.11,0.55-0.23,0.83-0.34c0.5-0.19,1-0.37,1.51-0.55c0.23-0.08,0.45-0.17,0.68-0.25
	c0.73-0.25,1.47-0.48,2.21-0.7c0.14-0.04,0.28-0.07,0.42-0.11c0.61-0.17,1.23-0.34,1.85-0.49c0.26-0.07,0.54-0.12,0.81-0.18
	c0.49-0.12,0.98-0.23,1.48-0.32c0.3-0.06,0.61-0.12,0.91-0.17c0.47-0.09,0.95-0.17,1.43-0.24c0.31-0.05,0.62-0.09,0.93-0.13
	c0.48-0.07,0.97-0.13,1.46-0.18c0.3-0.03,0.6-0.06,0.9-0.09c0.53-0.05,1.06-0.08,1.6-0.11c0.26-0.02,0.51-0.04,0.77-0.05
	c0.79-0.03,1.59-0.05,2.38-0.05h293.58c0.79,0,1.59,0.02,2.38,0.05c0.26,0.01,0.51,0.03,0.771,0.05c0.54,0.03,1.069,0.06,1.6,0.11
	c0.3,0.03,0.6,0.06,0.9,0.09c0.489,0.05,0.979,0.11,1.46,0.18c0.31,0.04,0.619,0.08,0.93,0.13c0.479,0.07,0.96,0.15,1.439,0.24
	c0.301,0.05,0.601,0.11,0.9,0.16c0.5,0.1,1,0.21,1.5,0.33c0.26,0.06,0.53,0.11,0.79,0.18c0.64,0.15,1.271,0.32,1.89,0.5
	c0.131,0.03,0.25,0.06,0.37,0.1c0.75,0.22,1.49,0.45,2.221,0.7c0.22,0.08,0.439,0.16,0.649,0.24c0.521,0.18,1.04,0.37,1.55,0.57
	c0.271,0.1,0.54,0.22,0.811,0.33c0.45,0.18,0.91,0.37,1.359,0.57c0.28,0.13,0.551,0.25,0.83,0.38c0.44,0.2,0.88,0.41,1.311,0.63
	c0.27,0.14,0.54,0.27,0.81,0.41c0.45,0.23,0.891,0.47,1.34,0.72c0.24,0.14,0.48,0.27,0.721,0.4c0.529,0.31,1.04,0.62,1.56,0.94
	c0.15,0.1,0.3,0.18,0.45,0.28c0.66,0.42,1.31,0.85,1.96,1.31c0.15,0.11,0.3,0.22,0.45,0.33
	C434.15,114.41,434.55,114.71,434.95,115.01z" id="id_102"></path>
<path fill="#d60d0d" d="M455.99,157.39v197.22c0,29.34-23.87,53.199-53.2,53.199H109.21c-14.67,0-27.97-5.97-37.6-15.6
	c-9.63-9.63-15.6-22.93-15.6-37.6V157.39c0-13.34,4.82-25.8,13.64-35.56l183.09,157.58c0.94,0.8,2.1,1.21,3.26,1.21
	s2.32-0.41,3.26-1.21l183.09-157.58C451.17,131.59,455.99,144.05,455.99,157.39z" id="id_103"></path>
</svg>