<?xml version="1.0" encoding="UTF-8" standalone="no"?> <svg id="Layer_1" data-name="Layer 1" xmlns="http://www.w3.org/2000/svg" xmlns:xlink="http://www.w3.org/1999/xlink" viewBox="0 0 512 512"><defs><style>.cls-1{fill:url(#linear-gradient);}.cls-2{fill:url(#linear-gradient-2);}.cls-3{fill:url(#linear-gradient-4);}.cls-4{fill:url(#linear-gradient-5);}.cls-5{fill:url(#linear-gradient-6);}.cls-6{fill:url(#linear-gradient-7);}.cls-7{fill:url(#linear-gradient-8);}.cls-8{fill:url(#linear-gradient-9);}.cls-9{fill:url(#linear-gradient-10);}</style><linearGradient id="linear-gradient" x1="256" y1="318.214" x2="256" y2="495.653" gradientUnits="userSpaceOnUse"><stop offset="0" stop-color="#34ca82"/><stop offset="1" stop-color="#37a477"/></linearGradient><linearGradient id="linear-gradient-2" x1="256" y1="345.214" x2="256" y2="478.286" gradientUnits="userSpaceOnUse"><stop offset="0" stop-color="#3e4154"/><stop offset="1" stop-color="#1b2129"/></linearGradient><linearGradient id="linear-gradient-4" x1="256" y1="304.714" x2="256" y2="403.714" gradientUnits="userSpaceOnUse"><stop offset="0" stop-color="#f1d2bd"/><stop offset="1" stop-color="#feb592"/></linearGradient><linearGradient id="linear-gradient-5" x1="253.05" y1="7.714" x2="253.05" y2="150.637" xlink:href="#linear-gradient-2"/><linearGradient id="linear-gradient-6" x1="133.333" y1="138.857" x2="133.333" y2="279.696" gradientUnits="userSpaceOnUse"><stop offset="0" stop-color="#c6cbcc"/><stop offset="1" stop-color="#9fa5a6"/></linearGradient><linearGradient id="linear-gradient-7" x1="378.667" y1="138.857" x2="378.667" y2="279.696" xlink:href="#linear-gradient-6"/><linearGradient id="linear-gradient-8" x1="256" y1="114.429" x2="256" y2="329.177" xlink:href="#linear-gradient-4"/><linearGradient id="linear-gradient-9" x1="349.333" y1="138.857" x2="349.333" y2="279.696" xlink:href="#linear-gradient-6"/><linearGradient id="linear-gradient-10" x1="282.667" y1="254.571" x2="282.667" y2="300.051" xlink:href="#linear-gradient-2"/></defs><title>Customer Service Male</title><path class="cls-1" d="M490.193,476.862l-19.5-63.37a116.738,116.738,0,0,0-112.141-82.825h-205.1A116.738,116.738,0,0,0,41.307,413.492l-19.5,63.37A10.669,10.669,0,0,0,32,490.667H480a10.669,10.669,0,0,0,10.193-13.8Z"/><rect class="cls-2" x="245.333" y="400" width="21.333" height="90.667"/><path class="cls-2" d="M202.667,341.333l-19.612,52.3a21.334,21.334,0,0,0,22.621,28.66L256,416l50.324,6.291a21.334,21.334,0,0,0,22.621-28.66l-19.612-52.3Z"/><path class="cls-3" d="M202.667,320v24.563a42.666,42.666,0,0,0,12.339,30.011L256,416l40.994-41.426a42.666,42.666,0,0,0,12.339-30.011V320Z"/><path class="cls-4" d="M370.7,62.719c-17.807-26.3-45.833-41.386-76.89-41.386H185.266a10.665,10.665,0,0,0-10.287,7.849,115.765,115.765,0,0,0-2.948,17.188c-21.281,5.781-38.286,19.221-47.125,37.45-10.088,20.8-8.786,45.956,3.657,70.847l5.052,10.1a10.669,10.669,0,0,0,9.541,5.9H367.5a10.669,10.669,0,0,0,9.9-6.7l3.453-8.62A99.285,99.285,0,0,0,370.7,62.719Z"/><path class="cls-5" d="M160,149.333H138.667A42.716,42.716,0,0,0,96,192v21.333A42.716,42.716,0,0,0,138.667,256H160a10.667,10.667,0,0,0,10.667-10.667V160A10.667,10.667,0,0,0,160,149.333Z"/><path class="cls-6" d="M373.333,149.333H352A10.667,10.667,0,0,0,341.333,160v85.333A10.667,10.667,0,0,0,352,256h21.333A42.716,42.716,0,0,0,416,213.333V192A42.716,42.716,0,0,0,373.333,149.333Z"/><path class="cls-7" d="M306.4,117.333H205.6A56.329,56.329,0,0,0,149.333,173.6v61.068a106.667,106.667,0,0,0,213.334,0V173.6A56.329,56.329,0,0,0,306.4,117.333Z"/><path class="cls-8" d="M352,288H314.667a10.667,10.667,0,1,1,0-21.333H352a21.356,21.356,0,0,0,21.333-21.334,10.667,10.667,0,0,1,21.334,0A42.716,42.716,0,0,1,352,288Z"/><path class="cls-9" d="M293.333,250.667H272A26.667,26.667,0,1,0,272,304h21.333a26.667,26.667,0,1,0,0-53.333Z"/></svg>